<?xml version="1.0" encoding="iso-8859-1"?>
<!-- Generator: Adobe Illustrator 19.0.0, SVG Export Plug-In . SVG Version: 6.00 Build 0)  -->
<svg version="1.1" id="Capa_1" xmlns="http://www.w3.org/2000/svg" xmlns:xlink="http://www.w3.org/1999/xlink" x="0px" y="0px"
	 viewBox="0 0 511.848 511.848" style="enable-background:new 0 0 511.848 511.848;" xml:space="preserve">
<g>
	<g>
		<path d="M437.156,40.763c-1.562-1.562-4.092-1.562-5.654,0L131.786,340.478c-1.562,1.562-1.562,4.092,0,5.654
			c0.781,0.781,1.805,1.172,2.827,1.172c1.024,0,2.047-0.391,2.828-1.172L437.156,46.418
			C438.718,44.855,438.718,42.325,437.156,40.763z"/>
	</g>
</g>
<g>
	<g>
		<path d="M471.091,74.697c-1.562-1.562-4.092-1.562-5.654,0L165.714,374.42c-1.562,1.561-1.562,4.092,0,5.654
			c0.781,0.781,1.805,1.172,2.827,1.172c1.024,0,2.047-0.39,2.828-1.172L471.091,80.352
			C472.653,78.789,472.653,76.259,471.091,74.697z"/>
	</g>
</g>
<g>
	<g>
		<path d="M508.822,0.118c-2.164-0.523-4.32,0.758-4.851,2.914c-0.117,0.437-11.402,44.533-38.534,71.665
			c-1.562,1.562-1.562,4.093,0,5.655c0.78,0.781,1.804,1.171,2.827,1.171s2.046-0.39,2.827-1.172
			c28.726-28.726,40.159-73.493,40.636-75.383C512.266,2.828,510.962,0.657,508.822,0.118z"/>
	</g>
</g>
<g>
	<g>
		<path d="M511.727,3.033c-0.539-2.149-2.711-3.429-4.851-2.914c-1.89,0.477-46.642,11.911-75.374,40.644
			c-1.562,1.562-1.562,4.093,0,5.655c0.78,0.781,1.804,1.171,2.827,1.171s2.046-0.391,2.828-1.171
			c27.14-27.14,71.22-38.426,71.665-38.535C510.961,7.344,512.258,5.173,511.727,3.033z"/>
	</g>
</g>
<g>
	<g>
		<path d="M454.119,91.661l-33.927-33.927c-1.561-1.562-4.092-1.562-5.654,0s-1.562,4.092,0,5.654l33.927,33.927
			c0.781,0.781,1.805,1.172,2.827,1.172c1.024,0,2.046-0.391,2.827-1.172C455.681,95.754,455.681,93.223,454.119,91.661z"/>
	</g>
</g>
<g>
	<g>
		<path d="M171.369,374.42l-33.928-33.942c-1.561-1.562-4.092-1.562-5.654,0c-1.562,1.562-1.562,4.092,0,5.654l33.927,33.942
			c0.781,0.781,1.805,1.172,2.827,1.172c1.024,0,2.047-0.39,2.828-1.172C172.93,378.513,172.93,375.982,171.369,374.42z"/>
	</g>
</g>
<g>
	<g>
		<path d="M188.332,278.279l-5.654-5.654c-1.562-1.562-4.092-1.562-5.654,0c-1.562,1.561-1.562,4.092,0,5.654l5.654,5.654
			c0.781,0.781,1.804,1.172,2.827,1.172c1.024,0,2.046-0.391,2.827-1.172C189.893,282.371,189.893,279.841,188.332,278.279z"/>
	</g>
</g>
<g>
	<g>
		<path d="M179.487,271.468l-62.199,5.654c-2.198,0.203-3.819,2.156-3.62,4.343c0.191,2.078,1.932,3.64,3.979,3.64
			c0.121,0,0.242,0,0.368-0.016l62.199-5.654c2.198-0.203,3.818-2.141,3.619-4.343C183.632,272.89,181.745,271.327,179.487,271.468z
			"/>
	</g>
</g>
<g>
	<g>
		<path d="M120.479,278.278c-1.562-1.562-4.092-1.562-5.654,0l-11.31,11.309c-1.562,1.562-1.562,4.092,0,5.654
			c0.781,0.781,1.805,1.172,2.827,1.172c1.023,0,2.047-0.39,2.828-1.172l11.309-11.309C122.04,282.37,122.04,279.84,120.479,278.278
			z"/>
	</g>
</g>
<g>
	<g>
		<path d="M143.096,323.514l-33.927-33.927c-1.562-1.562-4.093-1.562-5.655,0c-1.562,1.562-1.562,4.092,0,5.654l33.927,33.928
			c0.781,0.78,1.805,1.171,2.828,1.171c1.022,0,2.046-0.391,2.827-1.171C144.659,327.607,144.659,325.076,143.096,323.514z"/>
	</g>
</g>
<g>
	<g>
		<path d="M239.237,329.169l-5.655-5.655c-1.561-1.562-4.092-1.562-5.654,0c-1.562,1.562-1.562,4.093,0,5.655l5.654,5.654
			c0.781,0.781,1.805,1.171,2.828,1.171s2.046-0.389,2.827-1.171C240.799,333.261,240.799,330.731,239.237,329.169z"/>
	</g>
</g>
<g>
	<g>
		<path d="M236.773,328.012c-2.257-0.141-4.143,1.422-4.346,3.624l-5.654,62.215c-0.199,2.187,1.421,4.139,3.619,4.342
			c0.125,0,0.246,0.016,0.367,0.016c2.047,0,3.788-1.561,3.98-3.64l5.654-62.215C240.593,330.167,238.973,328.215,236.773,328.012z"
			/>
	</g>
</g>
<g>
	<g>
		<path d="M233.583,391.384c-1.561-1.562-4.092-1.562-5.654,0l-11.316,11.309c-1.562,1.561-1.562,4.092,0,5.654
			c0.781,0.781,1.804,1.172,2.827,1.172s2.046-0.391,2.827-1.172l11.316-11.309C235.145,395.476,235.145,392.946,233.583,391.384z"
			/>
	</g>
</g>
<g>
	<g>
		<path d="M222.267,402.693l-33.935-33.927c-1.561-1.562-4.092-1.562-5.654,0c-1.562,1.561-1.562,4.092,0,5.654l33.935,33.927
			c0.781,0.781,1.804,1.172,2.827,1.172s2.046-0.391,2.827-1.172C223.828,406.785,223.828,404.255,222.267,402.693z"/>
	</g>
</g>
<g>
	<g>
		<path d="M210.966,300.897c-1.562-1.562-4.092-1.562-5.654,0l-45.244,45.235c-1.562,1.562-1.562,4.092,0,5.654
			c0.781,0.781,1.805,1.172,2.827,1.172c1.023,0,2.047-0.39,2.827-1.172l45.244-45.235
			C212.528,304.989,212.528,302.459,210.966,300.897z"/>
	</g>
</g>
<g>
	<g>
		<path d="M233.575,300.897l-22.617-22.618c-1.562-1.562-4.092-1.562-5.654,0c-1.562,1.562-1.562,4.092,0,5.654l22.617,22.618
			c0.781,0.78,1.805,1.171,2.827,1.171c1.024,0,2.047-0.391,2.827-1.171C235.137,304.989,235.137,302.459,233.575,300.897z"/>
	</g>
</g>
<g>
	<g>
		<path d="M354.635,198.933c-2.124-0.203-4.178,1.343-4.42,3.53l-5.654,50.898c-0.242,2.202,1.343,4.178,3.537,4.42
			c0.148,0.015,0.297,0.023,0.445,0.023c2.008,0,3.741-1.515,3.968-3.553l5.654-50.898
			C358.407,201.151,356.83,199.175,354.635,198.933z"/>
	</g>
</g>
<g>
	<g>
		<path d="M351.362,250.979l-22.626-22.626c-1.562-1.562-4.093-1.562-5.655,0s-1.562,4.092,0,5.654l22.626,22.626
			c0.781,0.781,1.805,1.171,2.827,1.171c1.024,0,2.047-0.39,2.828-1.171C352.924,255.071,352.924,252.541,351.362,250.979z"/>
	</g>
</g>
<g>
	<g>
		<path d="M312.929,157.234c-0.242-2.194-2.195-3.772-4.413-3.538l-50.897,5.646c-2.195,0.242-3.776,2.218-3.534,4.413
			c0.227,2.046,1.96,3.562,3.972,3.562c0.144,0,0.296-0.008,0.444-0.023l50.898-5.647
			C311.593,161.404,313.171,159.428,312.929,157.234z"/>
	</g>
</g>
<g>
	<g>
		<path d="M283.501,183.11l-22.614-22.618c-1.561-1.562-4.092-1.562-5.654,0c-1.562,1.562-1.562,4.092,0,5.654l22.614,22.618
			c0.781,0.78,1.804,1.171,2.827,1.171s2.047-0.391,2.827-1.17C285.063,187.202,285.063,184.672,283.501,183.11z"/>
	</g>
</g>
<g>
	<g>
		<path d="M334.391,177.454c-1.562-1.562-4.092-1.562-5.654,0l-28.272,28.28c-1.562,1.563-1.562,4.093,0,5.655
			c0.781,0.78,1.804,1.171,2.827,1.171s2.046-0.39,2.827-1.172l28.272-28.28C335.953,181.546,335.953,179.016,334.391,177.454z"/>
	</g>
</g>
<g>
	<g>
		<path d="M357.01,177.455l-22.618-22.618c-1.562-1.562-4.092-1.562-5.654,0c-1.562,1.561-1.562,4.092,0,5.654l22.618,22.618
			c0.78,0.78,1.804,1.171,2.826,1.171c1.023,0,2.047-0.391,2.828-1.171C358.572,181.547,358.572,179.017,357.01,177.455z"/>
	</g>
</g>
<g>
	<g>
		<path d="M120.463,391.4c-1.562-1.562-4.092-1.562-5.654,0L1.172,505.02c-1.562,1.561-1.562,4.092,0,5.654
			c0.781,0.781,1.805,1.172,2.827,1.172c1.024,0,2.047-0.391,2.828-1.172l113.636-113.62
			C122.024,395.492,122.024,392.962,120.463,391.4z"/>
	</g>
</g>
<g>
	<g>
		<path d="M160.044,385.745c-1.561-1.562-4.092-1.562-5.654,0l-74.039,74.04c-1.562,1.561-1.562,4.092,0,5.654
			c0.781,0.78,1.804,1.171,2.827,1.171s2.046-0.391,2.827-1.171l74.039-74.039C161.606,389.838,161.606,387.307,160.044,385.745z"/>
	</g>
</g>
<g>
	<g>
		<path d="M143.081,368.781c-1.562-1.562-4.093-1.562-5.655,0l-11.309,11.309c-1.562,1.562-1.562,4.092,0,5.654
			c0.781,0.781,1.805,1.172,2.827,1.172c1.023,0,2.046-0.39,2.827-1.172l11.31-11.309
			C144.643,372.874,144.643,370.343,143.081,368.781z"/>
	</g>
</g>
<g>
	<g>
		<path d="M75.219,470.562c-1.561-1.562-4.092-1.562-5.654,0l-11.309,11.324c-1.562,1.562-1.562,4.092,0,5.654
			c0.781,0.781,1.804,1.172,2.827,1.172c1.024,0,2.046-0.391,2.827-1.172l11.309-11.324
			C76.781,474.655,76.781,472.124,75.219,470.562z"/>
	</g>
</g>
<g>
	<g>
		<path d="M126.117,351.818c-1.561-1.562-4.092-1.562-5.654,0l-74.039,74.039c-1.562,1.562-1.562,4.092,0,5.654
			c0.781,0.781,1.804,1.172,2.827,1.172c1.024,0,2.046-0.391,2.827-1.172l74.039-74.039
			C127.679,355.911,127.679,353.38,126.117,351.818z"/>
	</g>
</g>
<g>
	<g>
		<path d="M41.284,436.635c-1.561-1.562-4.092-1.562-5.654,0l-11.309,11.309c-1.562,1.562-1.562,4.093,0,5.655
			c0.781,0.78,1.804,1.171,2.827,1.171s2.046-0.391,2.827-1.171l11.309-11.31C42.846,440.728,42.846,438.197,41.284,436.635z"/>
	</g>
</g>
<g>
</g>
<g>
</g>
<g>
</g>
<g>
</g>
<g>
</g>
<g>
</g>
<g>
</g>
<g>
</g>
<g>
</g>
<g>
</g>
<g>
</g>
<g>
</g>
<g>
</g>
<g>
</g>
<g>
</g>
</svg>
